<?xml version="1.0" encoding="UTF-8" standalone="no"?>
<svg
   xmlns:dc="http://purl.org/dc/elements/1.1/"
   xmlns:cc="http://creativecommons.org/ns#"
   xmlns:rdf="http://www.w3.org/1999/02/22-rdf-syntax-ns#"
   xmlns:svg="http://www.w3.org/2000/svg"
   xmlns="http://www.w3.org/2000/svg"
   viewBox="0 0 1600 1066.6667"
   height="1066.6667"
   width="1600"
   xml:space="preserve"
   id="svg2"
   version="1.1"><metadata
     id="metadata8"><rdf:RDF><cc:Work
         rdf:about=""><dc:format>image/svg+xml</dc:format><dc:type
           rdf:resource="http://purl.org/dc/dcmitype/StillImage" /></cc:Work></rdf:RDF></metadata><defs
     id="defs6"><clipPath
       id="clipPath62"
       clipPathUnits="userSpaceOnUse"><path
         id="path60"
         d="M 0,800 H 1200 V 0 H 0 Z" /></clipPath></defs><g
     transform="matrix(1.3333333,0,0,-1.3333333,0,1066.6667)"
     id="g10"><g
       transform="translate(635.6572,567.9668)"
       id="g12"><path
         id="path14"
         style="fill:#2da7df;fill-opacity:1;fill-rule:nonzero;stroke:none"
         d="M 0,0 H 67.338 V -67.337 L 80.136,-80.136 V 12.798 H -12.798 Z" /></g><g
       transform="translate(497.1343,500.6289)"
       id="g16"><path
         id="path18"
         style="fill:#6ebf69;fill-opacity:1;fill-rule:nonzero;stroke:none"
         d="M 0,0 V 67.338 H 67.338 L 80.136,80.136 H -12.798 V -12.798 Z" /></g><g
       transform="translate(564.4722,362.1064)"
       id="g20"><path
         id="path22"
         style="fill:#2da7df;fill-opacity:1;fill-rule:nonzero;stroke:none"
         d="M 0,0 H -67.338 V 67.337 L -80.136,80.135 V -12.798 H 12.798 Z" /></g><g
       transform="translate(702.9951,429.4438)"
       id="g24"><path
         id="path26"
         style="fill:#6ebf69;fill-opacity:1;fill-rule:nonzero;stroke:none"
         d="M 0,0 V -67.337 H -67.338 L -80.136,-80.135 H 12.798 V 12.798 Z" /></g><path
       id="path28"
       style="fill:#05bbd3;fill-opacity:1;fill-rule:nonzero;stroke:none"
       d="m 663.699,475.609 h 58.648 v -21.743 h -58.648 z" /><path
       id="path30"
       style="fill:#6ebf69;fill-opacity:1;fill-rule:nonzero;stroke:none"
       d="m 663.699,439.503 h 21.545 v -21.744 h -21.545 z" /><path
       id="path32"
       style="fill:#4cacc8;fill-opacity:1;fill-rule:nonzero;stroke:none"
       d="m 627.992,511.915 h 57.252 v -21.744 h -57.252 z" /><path
       id="path34"
       style="fill:#6ebf69;fill-opacity:1;fill-rule:nonzero;stroke:none"
       d="m 627.992,548.62 h 21.743 v -21.744 h -21.743 z" /><path
       id="path36"
       style="fill:#05bbd3;fill-opacity:1;fill-rule:nonzero;stroke:none"
       d="m 554.184,548.62 h 58.249 v -21.744 h -58.249 z" /><path
       id="path38"
       style="fill:#6ebf69;fill-opacity:1;fill-rule:nonzero;stroke:none"
       d="m 519.274,511.915 h 56.653 v -21.744 h -56.653 z" /><path
       id="path40"
       style="fill:#05bbd3;fill-opacity:1;fill-rule:nonzero;stroke:none"
       d="m 477.782,475.827 h 98.146 v -21.744 h -98.146 z" /><path
       id="path42"
       style="fill:#2da7df;fill-opacity:1;fill-rule:nonzero;stroke:none"
       d="m 519.274,439.721 h 20.348 v -21.744 h -20.348 z" /><path
       id="path44"
       style="fill:#4cacc8;fill-opacity:1;fill-rule:nonzero;stroke:none"
       d="m 554.184,439.721 h 59.047 v -21.744 h -59.047 z" /><path
       id="path46"
       style="fill:#4cacc8;fill-opacity:1;fill-rule:nonzero;stroke:none"
       d="m 554.184,403.795 h 21.744 v -21.744 h -21.744 z" /><path
       id="path48"
       style="fill:#6ebf69;fill-opacity:1;fill-rule:nonzero;stroke:none"
       d="m 589.507,586.307 h 21.146 v -21.744 h -21.146 z" /><path
       id="path50"
       style="fill:#2da7df;fill-opacity:1;fill-rule:nonzero;stroke:none"
       d="m 627.992,475.609 h 21.743 v -93.557 h -21.743 z" /><path
       id="path52"
       style="fill:#6ebf69;fill-opacity:1;fill-rule:nonzero;stroke:none"
       d="m 589.707,402.905 h 21.744 v -58.249 h -21.744 z" /><path
       id="path54"
       style="fill:#2da7df;fill-opacity:1;fill-rule:nonzero;stroke:none"
       d="m 591.487,511.915 h 21.744 v -57.832 h -21.744 z" /><g
       id="g56"><g
         clip-path="url(#clipPath62)"
         id="g58"><g
           transform="translate(303.7124,274.9561)"
           id="g64"><path
             id="path66"
             style="fill:#2da7df;fill-opacity:1;fill-rule:nonzero;stroke:none"
             d="m 0,0 c 0,-4.418 -1.325,-8.189 -3.975,-11.313 -2.854,-3.263 -6.456,-4.894 -10.804,-4.894 h -45.256 c 0,8.154 4.348,12.231 13.047,12.231 h 32.209 c 1.697,0 2.549,1.326 2.549,3.976 0,2.65 -0.852,3.975 -2.549,3.975 h -32.923 c -4.349,0 -7.95,1.63 -10.804,4.892 -2.719,3.059 -4.077,6.795 -4.077,11.213 0,4.416 1.392,8.221 4.179,11.416 2.785,3.192 6.353,4.79 10.702,4.79 h 45.256 c 0,-8.154 -3.84,-12.231 -11.518,-12.231 h -33.738 c -1.699,0 -2.548,-1.326 -2.548,-3.975 0,-2.584 0.849,-3.874 2.548,-3.874 h 32.923 c 4.348,0 7.95,-1.631 10.804,-4.892 C -1.325,8.188 0,4.416 0,0" /></g><g
           transform="translate(356.5103,299.0107)"
           id="g68"><path
             id="path70"
             style="fill:#2da7df;fill-opacity:1;fill-rule:nonzero;stroke:none"
             d="m 0,0 h -11.824 v -29.763 c 0,-6.999 -4.077,-10.499 -12.231,-10.499 V 0 h -23.647 c 0,8.154 3.532,12.231 10.6,12.231 H 11.824 C 11.824,4.077 7.882,0 0,0" /></g><g
           transform="translate(424.8008,275.3633)"
           id="g72"><path
             id="path74"
             style="fill:#2da7df;fill-opacity:1;fill-rule:nonzero;stroke:none"
             d="m 0,0 v 19.265 c 0,2.921 -1.631,4.382 -4.892,4.382 h -30.783 c -3.261,0 -4.892,-1.461 -4.892,-4.382 V 0 c 0,-2.922 1.631,-4.383 4.892,-4.383 H -4.892 C -1.631,-4.383 0,-2.922 0,0 m 12.231,0 c 0,-4.757 -1.665,-8.715 -4.994,-11.874 -3.33,-3.16 -7.374,-4.74 -12.129,-4.74 h -30.783 c -4.757,0 -8.8,1.58 -12.129,4.74 -3.33,3.159 -4.994,7.117 -4.994,11.874 v 19.265 c 0,4.756 1.664,8.714 4.994,11.875 3.329,3.159 7.372,4.739 12.129,4.739 h 30.783 c 4.755,0 8.799,-1.58 12.129,-4.739 3.329,-3.161 4.994,-7.119 4.994,-11.875 z" /></g><g
           transform="translate(485.855,258.749)"
           id="g76"><path
             id="path78"
             style="fill:#2da7df;fill-opacity:1;fill-rule:nonzero;stroke:none"
             d="M 0,0 -31.496,35.369 V 10.295 C -31.496,3.431 -35.573,0 -43.728,0 v 42.402 c 0,6.728 4.078,10.091 12.232,10.091 L 0,17.43 v 25.074 c 0,6.659 4.077,9.989 12.231,9.989 V 10.092 C 12.231,3.364 8.154,0 0,0" /></g><g
           transform="translate(548.0308,299.1123)"
           id="g80"><path
             id="path82"
             style="fill:#2da7df;fill-opacity:1;fill-rule:nonzero;stroke:none"
             d="m 0,0 -0.102,-0.102 h -0.714 c -0.815,-0.136 -3.602,-0.136 -8.358,0 H -32.617 V -7.95 H 6.829 c -0.545,-2.854 -1.801,-5.403 -3.771,-7.645 -2.719,-3.194 -6.253,-4.688 -10.601,-4.484 l -22.016,-0.103 h -3.058 v -7.95 l 23.24,0.102 20.181,0.102 C 10.259,-30.782 9.003,-33.33 7.033,-35.572 4.314,-38.768 0.78,-40.363 -3.568,-40.363 h -29.049 c -8.154,0 -12.232,4.078 -12.232,12.231 v 27.929 c 0,8.221 3.975,12.333 11.926,12.333 H 11.008 C 10.463,9.275 9.207,6.728 7.237,4.485 5.265,2.175 2.854,0.679 0,0" /></g><g
           transform="translate(615.0986,270.9805)"
           id="g84"><path
             id="path86"
             style="fill:#2da7df;fill-opacity:1;fill-rule:nonzero;stroke:none"
             d="M 0,0 C 1.767,0 2.65,1.325 2.65,3.976 2.65,6.626 1.767,7.95 0,7.95 H -38.63 V 0 Z m -34.451,40.363 33.534,-0.101 c 4.62,0 8.289,-1.496 11.009,-4.486 2.445,-2.717 3.669,-6.047 3.669,-9.988 0,-4.892 -1.802,-8.699 -5.403,-11.416 4.282,-2.65 6.421,-6.693 6.421,-12.129 0,-3.942 -1.258,-7.272 -3.77,-9.989 C 8.29,-10.737 4.62,-12.231 0,-12.231 h -30.986 v -0.102 h -7.95 c -7.883,0 -11.859,3.805 -11.926,11.416 V 20.182 L -0.917,20.08 c 1.767,0 2.65,1.325 2.65,3.976 0,2.649 -0.883,3.974 -2.65,3.974 l -33.534,-0.101 c -10.873,0.134 -16.344,4.28 -16.411,12.434 z" /></g><g
           transform="translate(699.3916,275.0576)"
           id="g88"><path
             id="path90"
             style="fill:#2da7df;fill-opacity:1;fill-rule:nonzero;stroke:none"
             d="m 0,0 c 0,-4.418 -1.394,-8.223 -4.179,-11.415 -2.787,-3.195 -6.354,-4.791 -10.702,-4.791 h -34.656 c -4.418,0 -8.001,1.596 -10.753,4.791 -2.752,3.192 -4.128,6.997 -4.128,11.415 v 36.185 c 8.153,0 12.231,-3.399 12.231,-10.193 V 0 c 0,-2.649 0.882,-3.976 2.65,-3.976 h 34.656 c 1.697,0 2.548,1.327 2.548,3.976 V 36.185 C -4.112,36.185 0,32.786 0,25.992 Z" /></g><g
           transform="translate(750.5586,275.9756)"
           id="g92"><path
             id="path94"
             style="fill:#2da7df;fill-opacity:1;fill-rule:nonzero;stroke:none"
             d="M 0,0 H 0.102 L 15.493,-17.227 H -1.224 L -16.41,-0.103 h -17.43 v -17.124 h -12.231 v 29.458 l 44.134,-0.102 c 1.767,0 2.65,1.8 2.65,5.402 0,3.669 -0.883,5.504 -2.65,5.504 h -32.617 c -7.679,0 -11.517,4.077 -11.517,12.232 h 44.134 c 4.552,0 8.221,-1.871 11.008,-5.606 2.582,-3.399 3.873,-7.441 3.873,-12.13 0,-4.688 -1.291,-8.699 -3.873,-12.027 C 6.692,2.309 3.67,0.475 0,0" /></g><g
           transform="translate(819.0527,258.749)"
           id="g96"><path
             id="path98"
             style="fill:#2da7df;fill-opacity:1;fill-rule:nonzero;stroke:none"
             d="M 0,0 -31.495,35.369 V 10.295 C -31.495,3.431 -35.572,0 -43.727,0 v 42.402 c 0,6.728 4.078,10.091 12.232,10.091 L 0,17.43 v 25.074 c 0,6.659 4.077,9.989 12.231,9.989 V 10.092 C 12.231,3.364 8.154,0 0,0" /></g><g
           transform="translate(881.2285,299.1123)"
           id="g100"><path
             id="path102"
             style="fill:#2da7df;fill-opacity:1;fill-rule:nonzero;stroke:none"
             d="m 0,0 -0.102,-0.102 h -0.713 c -0.816,-0.136 -3.603,-0.136 -8.358,0 H -32.616 V -7.95 H 6.83 c -0.545,-2.854 -1.802,-5.403 -3.771,-7.645 -2.719,-3.194 -6.253,-4.688 -10.601,-4.484 l -22.017,-0.103 h -3.057 v -7.95 l 23.239,0.102 20.182,0.102 c -0.545,-2.854 -1.801,-5.402 -3.772,-7.644 -2.718,-3.196 -6.253,-4.791 -10.6,-4.791 h -29.049 c -8.155,0 -12.232,4.078 -12.232,12.231 v 27.929 c 0,8.221 3.975,12.333 11.925,12.333 H 11.009 C 10.464,9.275 9.207,6.728 7.237,4.485 5.266,2.175 2.854,0.679 0,0" /></g><g
           transform="translate(943.5068,275.9756)"
           id="g104"><path
             id="path106"
             style="fill:#2da7df;fill-opacity:1;fill-rule:nonzero;stroke:none"
             d="M 0,0 H 0.102 L 15.493,-17.227 H -1.224 L -16.41,-0.103 h -17.43 v -17.124 h -12.231 v 29.458 l 44.134,-0.102 c 1.766,0 2.65,1.8 2.65,5.402 0,3.669 -0.884,5.504 -2.65,5.504 h -32.617 c -7.679,0 -11.517,4.077 -11.517,12.232 h 44.134 c 4.552,0 8.221,-1.871 11.008,-5.606 2.582,-3.399 3.873,-7.441 3.873,-12.13 0,-4.688 -1.291,-8.699 -3.873,-12.027 C 6.692,2.309 3.67,0.475 0,0" /></g><g
           transform="translate(361.0806,220.6807)"
           id="g108"><path
             id="path110"
             style="fill:#6ebf69;fill-opacity:1;fill-rule:nonzero;stroke:none"
             d="m 0,0 c 3.871,0 5.114,1.198 5.114,2.949 0,2.119 -1.888,3.179 -6.404,3.548 l -15.251,1.197 c -7.096,0.554 -11.335,3.088 -11.335,8.894 0,6.681 5.622,9.03 12.118,9.03 H 9.86 v -5.897 h -26.217 c -3.087,0 -4.838,-0.829 -4.838,-2.95 0,-1.75 1.198,-2.671 6.359,-3.086 l 14.514,-1.152 c 7.418,-0.599 12.21,-2.949 12.21,-9.307 0,-5.345 -3.41,-9.123 -12.303,-9.123 H -28.014 V 0 Z" /></g><g
           transform="translate(437.7998,230.541)"
           id="g112"><path
             id="path114"
             style="fill:#6ebf69;fill-opacity:1;fill-rule:nonzero;stroke:none"
             d="m 0,0 c 0,8.801 -5.068,9.998 -15.389,9.998 -10.321,0 -15.39,-1.197 -15.39,-9.998 0,-8.801 5.069,-9.998 15.39,-9.998 C -5.068,-9.998 0,-8.801 0,0 m 6.727,0 c 0,-12.21 -7.096,-16.219 -22.116,-16.219 -15.021,0 -22.117,4.009 -22.117,16.219 0,12.21 7.096,16.219 22.117,16.219 C -0.369,16.219 6.727,12.21 6.727,0" /></g><g
           transform="translate(490.376,239.8486)"
           id="g116"><path
             id="path118"
             style="fill:#6ebf69;fill-opacity:1;fill-rule:nonzero;stroke:none"
             d="M 0,0 C -7.51,0 -10.321,-0.968 -10.321,-7.465 V -8.34 h 30.133 v -5.851 h -30.133 v -10.874 h -6.589 v 17.6 C -16.91,3.317 -11.289,6.45 0,6.45 H 20.964 V 0 Z" /></g><g
           transform="translate(552.9502,214.7832)"
           id="g120"><path
             id="path122"
             style="fill:#6ebf69;fill-opacity:1;fill-rule:nonzero;stroke:none"
             d="m 0,0 v 25.572 h -15.666 v 5.944 H 22.255 V 25.572 H 6.589 L 6.589,0 Z" /></g><g
           transform="translate(664.918,246.2988)"
           id="g124"><path
             id="path126"
             style="fill:#6ebf69;fill-opacity:1;fill-rule:nonzero;stroke:none"
             d="m 0,0 -11.381,-25.479 c -2.442,-5.438 -6.543,-6.498 -9.446,-6.498 -3.777,0 -7.234,1.797 -9.261,5.945 l -2.35,4.791 -2.303,-4.791 c -2.028,-4.148 -5.53,-5.945 -9.262,-5.945 -2.902,0 -7.003,1.06 -9.445,6.498 L -64.829,0 h 6.957 l 10.321,-23.084 c 0.968,-2.119 1.936,-2.672 3.502,-2.672 1.705,0 2.719,0.691 3.548,2.396 l 4.562,9.353 L -42.713,0 h 6.635 l 3.64,-7.557 3.686,7.557 h 6.635 l -6.773,-14.007 4.562,-9.353 c 0.829,-1.705 1.843,-2.396 3.548,-2.396 1.566,0 2.534,0.553 3.501,2.672 L -6.958,0 Z" /></g><g
           transform="translate(711.5049,238.7422)"
           id="g128"><path
             id="path130"
             style="fill:#6ebf69;fill-opacity:1;fill-rule:nonzero;stroke:none"
             d="M 0,0 C -0.691,1.337 -1.567,2.166 -3.271,2.166 -4.977,2.166 -5.853,1.337 -6.543,0 l -5.345,-10.32 H 5.298 Z m 19.443,-23.959 h -7.095 l -4.009,7.787 h -23.222 l -4.009,-7.787 h -7.049 L -13.04,1.337 c 1.981,3.916 4.377,6.681 9.769,6.681 5.39,0 7.74,-2.765 9.767,-6.681 z" /></g><g
           transform="translate(786.7031,231.002)"
           id="g132"><path
             id="path134"
             style="fill:#6ebf69;fill-opacity:1;fill-rule:nonzero;stroke:none"
             d="M 0,0 C 4.055,0 5.299,2.672 5.299,4.746 5.299,6.819 4.055,9.491 0,9.491 H -21.287 V 0 Z m -27.876,15.297 h 27.369 c 7.74,0 12.532,-3.502 12.532,-9.815 0,-4.422 -2.349,-7.141 -6.45,-8.338 4.009,-1.29 5.76,-3.872 5.76,-7.143 v -6.22 H 4.516 v 6.359 c 0,1.751 -0.968,4.008 -5.162,4.008 h -20.641 v -10.367 h -6.589 z" /></g><g
           transform="translate(842.0898,240.0322)"
           id="g136"><path
             id="path138"
             style="fill:#6ebf69;fill-opacity:1;fill-rule:nonzero;stroke:none"
             d="M 0,0 C -6.175,0 -8.018,-2.35 -8.479,-6.542 H 24.42 V -12.44 H -8.479 c 0.461,-4.193 2.304,-6.497 8.479,-6.497 h 24.973 v -6.312 H 0 c -11.289,0 -15.205,5.391 -15.205,15.758 0,10.367 3.916,15.758 15.205,15.758 H 24.973 V 0 Z" /></g></g></g></g></svg>